# xmcd
#
# Track frame offsets:
#	150
#	11551
#	21592
#	33990
#	43165
#	53821
#	62771
#	71785
#	81232
#	93052
#	105519
#	115603
#	126273
#	136700
#	147523
#	158100
#	170848
#	182274
#	193196
#	203462
#	211348
#	221176
#	229867
#	239357
#	249643
#	258313
#	266290
#	277481
#	285987
#
# Disc length: 3948 seconds
#
# Revision: 0
# Processed by: cddbd v1.5.2PL0 Copyright (c) Steve Scherf et al.
# Submitted via: EasyCDDAExtractor 2010.6.0.0
#
DISCID=ae0f6a1d
DTITLE=Eddie Noack - Have Blues Will Travel
DYEAR=1900
DGENRE=
TTITLE0=Have Blues Will Travel
TTITLE1=Price Of Love
TTITLE2=Walk 'em Off
TTITLE3=I Don't Live There Anymore
TTITLE4=Don't Look Behind
TTITLE5=Thinkin' Man's Woman A Loving Man's Girl
TTITLE6=Man On The Wall
TTITLE7=Relief Is Just A Swallow Away
TTITLE8=Unlucky Me
TTITLE9=Frown On The Moon
TTITLE10=Triflin' Mama Blues
TTITLE11=Green Back Dollar
TTITLE12=Nothing
TTITLE13=First And Last Thing
TTITLE14=As The Band Played Paul Jones
TTITLE15=Pride
TTITLE16=I'll Be So Good To You
TTITLE17=How Does It Feel To Be The Winner
TTITLE18=Too Hot To Handle
TTITLE19=I Want You I Need You I Love You
TTITLE20=Twenty Feet Of Muddy Water
TTITLE21=There You Go
TTITLE22=Train Of Love
TTITLE23=Curtain In The Window
TTITLE24=Stairway Of Love
TTITLE25=Blue Blue Day
TTITLE26=Oh Lonesome Me
TTITLE27=Alone With You
TTITLE28=Wanderin' Okie
EXTD=
EXTT0=
EXTT1=
EXTT2=
EXTT3=
EXTT4=
EXTT5=
EXTT6=
EXTT7=
EXTT8=
EXTT9=
EXTT10=
EXTT11=
EXTT12=
EXTT13=
EXTT14=
EXTT15=
EXTT16=
EXTT17=
EXTT18=
EXTT19=
EXTT20=
EXTT21=
EXTT22=
EXTT23=
EXTT24=
EXTT25=
EXTT26=
EXTT27=
EXTT28=
PLAYORDER=
